HIERARCHY
ROOT Hips
{
	OFFSET	0.000000	0.000000	0.000000
	CHANNELS 6 Xposition Yposition Zposition Zrotation Xrotation Yrotation
	JOINT LeftHip
	{
		OFFSET	4.527559	0.000000	0.000000
		CHANNELS 3 Zrotation Xrotation Yrotation
		JOINT LeftKnee
		{
			OFFSET	0.000000	-15.748032	0.000000
			CHANNELS 3 Zrotation Xrotation Yrotation
			JOINT LeftAnkle
			{
				OFFSET	0.000000	-16.141731	0.000000
				CHANNELS 3 Zrotation Xrotation Yrotation
				End Site
				{
					OFFSET	0.000000	-3.937008	-1.377953
				}
			}
		}
	}
	JOINT RightHip
	{
		OFFSET	-4.527559	0.000000	0.000000
		CHANNELS 3 Zrotation Xrotation Yrotation
		JOINT RightKnee
		{
			OFFSET	0.000000	-15.748032	0.000000
			CHANNELS 3 Zrotation Xrotation Yrotation
			JOINT RightAnkle
			{
				OFFSET	0.000000	-16.141731	0.000000
				CHANNELS 3 Zrotation Xrotation Yrotation
				End Site
				{
					OFFSET	0.000000	-3.937008	-1.377953
				}
			}
		}
	}
	JOINT Chest
	{
		OFFSET	0.000000	7.874016	0.000000
		CHANNELS 3 Zrotation Xrotation Yrotation
		JOINT LeftCollar
		{
			OFFSET	0.000000	13.779528	0.000000
			CHANNELS 3 Zrotation Xrotation Yrotation
			JOINT LeftShoulder
			{
				OFFSET	7.283464	0.000000	0.000000
				CHANNELS 3 Zrotation Xrotation Yrotation
				JOINT LeftElbow
				{
					OFFSET	0.000000	-10.433070	0.000000
					CHANNELS 3 Zrotation Xrotation Yrotation
					JOINT LeftWrist
					{
						OFFSET	0.000000	-10.629921	0.000000
						CHANNELS 3 Zrotation Xrotation Yrotation
						End Site
						{
							OFFSET	0.000000	-7.283464	0.000000
						}
					}
				}
			}
		}
		JOINT RightCollar
		{
			OFFSET	0.000000	13.779528	0.000000
			CHANNELS 3 Zrotation Xrotation Yrotation
			JOINT RightShoulder
			{
				OFFSET	-7.283464	0.000000	0.000000
				CHANNELS 3 Zrotation Xrotation Yrotation
				JOINT RightElbow
				{
					OFFSET	0.000000	-10.433070	0.000000
					CHANNELS 3 Zrotation Xrotation Yrotation
					JOINT RightWrist
					{
						OFFSET	0.000000	-10.629921	0.000000
						CHANNELS 3 Zrotation Xrotation Yrotation
						End Site
						{
							OFFSET	0.000000	-7.283464	0.000000
						}
					}
				}
			}
		}
		JOINT Neck
		{
			OFFSET	0.000000	13.779528	0.000000
			CHANNELS 3 Zrotation Xrotation Yrotation
			JOINT Head
			{
				OFFSET	0.000000	4.724409	0.000000
				CHANNELS 3 Zrotation Xrotation Yrotation
				End Site
				{
					OFFSET	0.000000	6.299212	0.000000
				}
			}
		}
	}
}
MOTION
Frames:     15
Frame Time: 0.008333
11.269194	35.836075	37.173447	166.254059	-178.435104	-89.416748	10.926385	-24.612215	10.976640	-7.008647	15.277260	15.006378	-5.395951	0.172088	14.428963	-10.034883	-12.894067	-4.075306	4.997385	8.060055	-3.366246	4.893296	-1.278412	-6.880916	-1.219782	-4.699137	6.365736	-11.060715	-2.573198	1.265404	28.973543	-8.883548	9.825226	-86.952423	-65.005669	-51.519268	-10.905518	-9.964918	9.204436	11.954394	-3.783451	-3.081463	-35.299236	-7.699803	-27.452801	96.382317	-42.161106	43.623367	11.586039	-4.447828	-2.377972	0.506136	17.451948	-1.199965	-3.931479	-25.583836	4.189966	
11.243801	35.817371	37.444130	166.205948	-178.479797	-89.767746	11.315042	-24.724016	10.833038	-6.539379	15.472291	14.685097	-6.186550	0.245991	14.876916	-9.724771	-12.802611	-5.283071	4.621598	7.409879	-2.466947	5.028661	-1.104821	-6.234384	-1.372350	-4.503775	6.165396	-10.957394	-2.732755	1.195595	29.323795	-9.147036	9.964269	-86.569611	-64.973457	-51.149517	-10.301992	-9.590455	8.954814	12.043806	-3.815947	-3.073740	-35.199669	-7.722479	-27.281487	96.217537	-42.174088	43.509872	11.587246	-4.484572	-2.307535	0.468726	17.526230	-1.069210	-4.032503	-25.569656	4.435569	
11.182561	35.801888	37.592522	-13.845243	-1.507606	89.873421	11.751949	-24.782566	10.689095	-6.550160	15.526567	14.873528	-6.494285	0.314292	14.834239	-9.050927	-12.650455	-6.263474	4.021479	6.732556	-1.047386	5.356043	-1.009622	-6.310621	-1.489079	-4.306933	5.989475	-10.871400	-2.909940	1.129359	29.650593	-9.409432	10.073813	-86.142532	-64.919853	-50.749958	-9.869051	-9.304821	8.734254	12.148639	-3.786233	-3.015756	-35.132893	-7.749672	-27.186384	96.092392	-42.167473	43.417854	11.574043	-4.529391	-2.216203	0.462719	17.632484	-0.929933	-4.199000	-25.610128	4.625044	
11.133743	35.800842	37.791313	-13.997676	-1.472775	89.538490	12.191112	-24.879042	10.531698	-6.612270	15.486878	15.117623	-6.800884	0.428748	14.581792	-8.215702	-12.594982	-6.869949	3.447340	6.136909	0.513626	5.524066	-1.081039	-6.815155	-1.626270	-4.230983	5.792631	-10.791610	-3.075458	1.089703	29.927673	-9.682446	10.138803	-85.630508	-64.855537	-50.271896	-9.657443	-9.147855	8.529650	12.269022	-3.674606	-2.909274	-35.095840	-7.774741	-27.167337	95.982544	-42.155952	43.338112	11.561332	-4.581531	-2.135388	0.479462	17.794584	-0.760828	-4.426905	-25.684652	4.773823	
11.025793	35.846413	38.312569	-14.236587	-1.330102	88.901016	12.868360	-24.943205	10.226127	-6.705999	15.210905	15.346681	-7.472750	0.776305	12.988111	-7.225167	-12.886250	-6.888207	3.175841	5.620177	2.690470	5.346045	-1.189030	-8.083365	-1.878138	-4.044430	5.424857	-10.671460	-3.407349	1.010766	30.234034	-10.073815	10.138859	-84.558212	-64.753845	-49.276951	-9.855693	-9.202136	8.191974	12.460145	-3.368353	-2.607426	-35.054409	-7.363175	-27.451773	96.215042	-41.880302	43.609833	11.500215	-4.688245	-2.107908	0.355559	18.138613	-0.272693	-4.855025	-25.780861	4.922056	
10.720659	35.900219	39.318077	-14.987017	-1.083473	87.578545	12.845751	-25.464714	8.845477	-5.621546	15.408014	7.475438	-7.690285	-1.530470	5.736557	-5.518147	-13.999236	-5.773776	3.307469	4.873436	4.931339	4.819931	-1.282321	-9.847821	-1.879467	-4.218353	4.829191	-10.555565	-4.564951	0.193459	29.987864	-10.497424	8.809753	-82.177650	-64.923088	-47.185368	-11.224631	-9.749492	7.805078	12.844042	-2.977262	-3.407546	-35.450432	-7.582057	-26.521471	95.489357	-41.985718	42.925922	11.349013	-4.830132	-2.296384	0.443955	18.515457	0.019312	-6.052610	-24.891735	5.474599	
10.703957	35.905403	39.459511	-15.090021	-1.071744	87.524811	11.854683	-25.618801	7.854620	-4.655989	15.539673	5.386793	-7.501856	-2.367913	4.627730	-5.268004	-13.994205	-5.752495	3.311087	4.621686	5.038762	4.766202	-1.269266	-9.874657	-1.779306	-4.334219	4.732342	-10.627261	-4.771822	-0.024590	29.891056	-10.539372	8.401019	-81.939964	-64.983658	-46.985962	-11.431319	-9.849346	7.828738	12.874518	-2.998277	-3.673459	-35.617489	-7.540714	-26.315758	95.455414	-42.006378	42.866207	11.373563	-4.846479	-2.312429	0.515981	18.475334	-0.064141	-6.204500	-24.575706	5.561448	
10.679873	35.911461	39.611267	-15.186963	-1.063921	87.493706	11.874454	-25.707876	7.908593	-4.356273	15.699162	2.986029	-7.384213	-2.959417	3.586586	-5.021042	-14.000371	-5.750159	3.352265	4.391579	5.194327	4.652122	-1.246446	-9.937691	-1.689784	-4.470650	4.622045	-10.703048	-4.965463	-0.239922	29.848507	-10.629777	8.007962	-81.718079	-65.043365	-46.766747	-11.764764	-9.962793	7.802205	12.906844	-2.968306	-3.880090	-35.802914	-7.490258	-26.206068	95.458946	-41.984703	42.811871	11.409496	-4.880392	-2.275826	0.548604	18.487860	-0.090313	-6.310504	-24.317310	5.609479	
10.655913	35.916718	39.746532	-15.218610	-1.034008	87.461517	11.178380	-25.767113	7.429442	-3.478864	15.603277	1.060909	-7.395435	-3.061946	2.719451	-4.820837	-13.943075	-5.750159	3.382925	4.161124	5.291420	4.552070	-1.221698	-9.926525	-1.639614	-4.543555	4.517322	-10.778617	-5.175791	-0.429039	29.854200	-10.758438	7.626513	-81.491982	-65.106476	-46.545868	-12.261000	-10.112161	7.687589	12.933923	-2.915427	-4.018390	-35.972534	-7.428643	-26.179493	95.462387	-41.946632	42.757420	11.471759	-4.943043	-2.221859	0.566004	18.519558	-0.076517	-6.398890	-24.102440	5.612718	
10.623369	35.941418	39.957760	-15.048900	-0.856560	87.289207	9.790699	-25.450447	6.440266	-2.000474	14.923144	-1.682002	-7.005361	-2.397802	1.320904	-4.505852	-13.627765	-5.613455	3.245272	3.692308	5.039563	4.531922	-1.019691	-9.538799	-1.708038	-4.499361	4.351643	-10.851179	-5.609754	-0.657500	29.902323	-11.103672	7.054963	-80.957474	-65.185646	-46.095970	-13.713662	-10.383030	7.043805	12.930825	-2.757892	-4.068754	-36.165581	-7.285250	-26.286867	95.472603	-41.884613	42.652527	11.635402	-4.994946	-2.160959	0.659858	18.596813	0.039108	-6.552801	-23.717974	5.706272	
10.592081	35.976414	40.138786	-14.703361	-0.566860	86.986008	8.776283	-24.681156	4.227778	-1.263239	14.030924	-1.495625	-6.776253	-1.850281	0.999412	-4.288843	-13.182265	-5.510628	3.017298	3.226468	4.707905	4.599007	-0.705401	-8.924355	-1.910501	-4.347063	4.293582	-10.768326	-6.113167	-0.728898	29.958252	-11.459899	6.753363	-80.513611	-65.225578	-45.785820	-15.358134	-10.459674	5.926852	12.867844	-2.551265	-3.947723	-36.196358	-7.172836	-26.458899	95.414162	-41.800903	42.549126	11.654366	-5.028813	-2.276730	0.812033	18.628347	0.164427	-6.742970	-23.303881	5.869330	
10.540634	36.025871	40.621521	-13.846242	0.215836	85.554138	9.340684	-23.254440	3.281356	-1.397221	13.100872	-0.522417	-7.958484	-0.726735	1.610009	-4.067897	-12.199703	-4.899830	3.163371	2.278463	4.549856	4.914308	-0.270877	-7.902592	-1.983939	-4.338070	4.792693	-10.303692	-7.011087	-1.331499	31.002642	-12.493666	7.444523	-80.177734	-65.823006	-45.752407	-17.588678	-11.362978	5.726304	12.365721	-2.680551	-3.801207	-36.073635	-7.194826	-25.856598	94.593063	-41.922565	42.154121	11.615887	-5.065532	-2.518595	1.133372	18.897461	0.110641	-7.400472	-22.563335	6.596663	
10.530736	36.020863	40.704281	-13.792640	0.291265	85.284523	9.742021	-23.128330	3.750593	-1.674004	13.107606	-0.539711	-8.057582	-0.621055	1.468960	-4.000593	-12.152778	-4.687693	3.233340	2.192121	4.571438	5.000428	-0.320258	-7.839104	-1.867245	-4.421658	4.909310	-10.208824	-7.049000	-1.481177	31.339172	-12.688311	7.798386	-80.290382	-66.002342	-45.840172	-17.527285	-11.678705	6.318443	12.248957	-2.826476	-3.829810	-36.066914	-7.299808	-25.581091	94.379669	-41.993309	42.050240	11.638199	-5.047269	-2.473284	1.122353	18.940613	0.069854	-7.508543	-22.532389	6.755832	
10.513296	36.017929	40.793930	-13.750454	0.361943	85.046707	10.064170	-23.039776	4.404251	-1.767543	13.180264	-0.901291	-8.139389	-0.424620	1.331178	-3.903833	-12.141304	-4.404873	3.273014	2.131202	4.535490	5.059937	-0.361627	-7.804703	-1.751511	-4.497724	4.964906	-10.093862	-7.065989	-1.627149	31.718473	-12.903472	8.209610	-80.321106	-66.209969	-45.840382	-17.437080	-12.027620	6.973299	12.137086	-2.988382	-3.827582	-36.090672	-7.433134	-25.319107	94.192154	-42.024612	41.926155	11.652601	-5.009524	-2.389002	1.077914	18.959635	0.070655	-7.588403	-22.507515	6.910859	
10.495466	36.014561	40.888439	-13.723318	0.398260	84.852814	10.324891	-23.017593	5.139526	-1.739686	13.305811	-1.426605	-8.146885	-0.275217	1.190997	-3.755478	-12.146617	-4.058954	3.288131	2.088725	4.426581	5.070260	-0.402719	-7.782605	-1.606857	-4.562044	4.961374	-9.973500	-7.087348	-1.784011	32.146275	-13.122931	8.701467	-80.219566	-66.420067	-45.705833	-17.357752	-12.401969	7.619109	12.026558	-3.153434	-3.794920	-36.112087	-7.576453	-25.072054	94.064598	-42.028233	41.849030	11.612432	-4.951094	-2.294657	1.016484	18.957623	0.083962	-7.671225	-22.487034	7.048278	
